<svg xmlns="http://www.w3.org/2000/svg" viewBox="0 0 110 110" id="delivery-truck"><g><circle cx="51" cy="59" r="50" fill="#e7efff"></circle><circle cx="14" cy="4" r="3" fill="#ff4d69"></circle><circle cx="85" cy="8" r="3" fill="#00c99f"></circle><circle cx="106" cy="45" r="3" fill="#ffa100"></circle><circle cx="7" cy="99" r="3" fill="#00c99f"></circle><path fill="#4e6aff" d="M69,44V98H19.73a50,50,0,0,1-15-58H65A4,4,0,0,1,69,44Z"></path><rect width="16" height="8" x="48" y="85" fill="#8fa2ff" rx="2"></rect><path fill="#fff" d="M57 82h6a1 1 0 000-2H57a1 1 0 000 2zM57 77h6a1 1 0 000-2H57a1 1 0 000 2z"></path><polygon fill="#8fa2ff" points="103 80 103 98 69 98 69 60 93 60 95 64 92.26 72.81 103 80"></polygon><path fill="#a5bced" d="M69,46V60H93l-.89-1.38A27.48,27.48,0,0,0,69,46Z"></path><polygon fill="#fff" points="103 80 76 80 76 64 95 64 103 80"></polygon><path fill="#a5bced" d="M103,98v1a3,3,0,0,1-3,3H25.5a50.21,50.21,0,0,1-5.77-4Z"></path><circle cx="84" cy="100" r="9" fill="#323fd4"></circle><circle cx="84" cy="100" r="4" fill="#fff"></circle><path fill="#323fd4" d="M23.94,101a50.33,50.33,0,0,1-11.12-9.76A9,9,0,0,1,23.94,101Z"></path><path fill="#00c99f" d="M52.59,25.81l-15,11A1,1,0,0,1,36,36V30H10.27a49.8,49.8,0,0,1,9.45-10H36V14a1,1,0,0,1,1.59-.81l15,11A1,1,0,0,1,52.59,25.81Z"></path><path fill="#8fa2ff" d="M40,55a1,1,0,0,1-1,1c-.45,0-.3,0-3.91-2.68l-2.38,2.39a1,1,0,0,1-1.42,0l-2.38-2.39L25.6,55.8A1,1,0,0,1,24,55V40H40Z"></path><path fill="#fff" d="M81,85H77a1,1,0,0,1,0-2h4a1,1,0,0,1,0,2Z"></path><path fill="#4e6aff" d="M98,90h5V84H98a3,3,0,0,0,0,6Z"></path></g></svg>